:SAMPLES-PER-SECOND 30
:FRAME-RANGE 1-1086
:FULLY-SPECIFIED
:DEGREES
170
root  -29.359 39.7178 -75.5442 -172.845 -49.9149 -177.888
RightUpLeg  -11.9131 -23.6324 -7.59057
RightLeg  14.0032 -55.6737 0.0593718
RightFoot  -0.00741272 -0.024727 0.24856
RightToes  -5.8209e-011 0 -3.6325e-017
Spine  8.74513 -0.171309 2.7945
Spine1  5.36329 0.647796 -3.02449
HEad  1.96394 -9.34342 -2.15959
LeftShoulder1  2.18321 -2.04328 -33.3255
LeftArm  24.936 -12.9775 -34.5107
LeftForeArm  -3.16402 -4.31285 -19.0513
LeftHand  0.310314 -1.42024 -5.17987
RightShoulder  11.6536 17.194 49.2613
RightArm  9.92495 7.24634 15.6727
RightForeArm  13.8579 8.30969 14.341
RightHand  0.20964 4.05759 2.30313
LeftUpLeg  -16.6335 32.1368 5.63248
LeftLeg  14.094 20.3379 3.49732
LeftFoot  0.632107 0.626792 -6.01126
LeftToes  5.72949e-011 5.22586e-011 2.45399e-011
171
root  -29.9045 39.6805 -74.9425 -173.042 -51.8707 -177.981
RightUpLeg  -11.5135 -27.0282 -8.7801
RightLeg  14.8819 -53.9329 -1.03078
RightFoot  1.04984 0.0157445 -0.0790264
RightToes  -5.8209e-011 0 -3.6325e-017
Spine  8.83625 -0.10812 1.77485
Spine1  5.58098 0.557177 -2.5124
HEad  2.25474 -11.4297 -1.51365
LeftShoulder1  2.19363 -2.07441 -33.2933
LeftArm  25.6954 -13.1512 -34.9416
LeftForeArm  -4.0885 -3.98127 -19.2553
LeftHand  0.285669 -1.19945 -4.94152
RightShoulder  11.6508 17.001 49.7159
RightArm  12.2607 7.36772 15.3512
RightForeArm  11.0734 10.9298 13.1697
RightHand  0.218388 4.1227 2.38957
LeftUpLeg  -17.5931 31.9019 3.72036
LeftLeg  15.3238 18.1961 4.09162
LeftFoot  -0.787953 0.523846 -5.61928
LeftToes  5.72949e-011 5.22586e-011 2.45399e-011
172
root  -30.4854 39.6141 -74.3186 -172.816 -53.9602 -178.214
RightUpLeg  -11.7177 -28.6897 -9.9683
RightLeg  16.4755 -52.8089 -3.16824
RightFoot  1.90505 0.0153665 -0.0203178
RightToes  -5.8209e-011 0 -3.6325e-017
Spine  8.53439 -0.0915813 0.963317
Spine1  5.93383 0.364656 -1.86136
HEad  2.25469 -13.3783 -0.595027
LeftShoulder1  2.20577 -2.10606 -33.2883
LeftArm  28.764 -13.7547 -35.5466
LeftForeArm  -7.09586 -4.34578 -19.4429
LeftHand  0.275306 -1.07708 -4.86165
RightShoulder  11.5729 16.6812 50.1685
RightArm  12.3064 7.47529 15.0464
RightForeArm  10.4494 12.529 12.1143
RightHand  0.218646 4.4036 2.30546
LeftUpLeg  -19.3041 33.4533 0.951215
LeftLeg  16.6992 14.2888 4.46341
LeftFoot  -2.25652 0.397598 -4.8333
LeftToes  5.72949e-011 5.22586e-011 2.45399e-011
173
root  -31.0501 39.566 -73.6791 -172.325 -55.9305 -178.633
RightUpLeg  -11.9234 -27.9613 -11.0266
RightLeg  14.2473 -45.5423 -1.89063
RightFoot  2.1855 -0.33522 2.95109
RightToes  -5.8209e-011 0 -3.6325e-017
Spine  8.70003 -0.170276 0.618794
Spine1  5.658 0.339619 -2.11579
HEad  2.1126 -15.1403 -0.0615957
LeftShoulder1  2.22841 -2.18737 -33.1263
LeftArm  31.4803 -14.38 -36.3073
LeftForeArm  -9.2339 -4.74186 -19.5379
LeftHand  0.28261 -1.05437 -5.01517
RightShoulder  11.3139 16.1883 50.278
RightArm  11.685 7.22372 15.1999
RightForeArm  10.0503 13.6749 11.2116
RightHand  0.189297 4.40913 1.95655
LeftUpLeg  -20.2695 33.5907 -1.24508
LeftLeg  17.4833 12.1548 4.21198
LeftFoot  -3.77411 0.272287 -3.77439
LeftToes  5.72949e-011 5.22586e-011 2.45399e-011
174
root  -31.5716 39.5024 -73.039 -171.697 -57.4565 -179.131
RightUpLeg  -13.9167 -26.4012 -10.6508
RightLeg  13.3813 -32.1425 -2.44958
RightFoot  0.67264 -0.623669 5.96448
RightToes  -5.8209e-011 0 -3.6325e-017
Spine  9.45898 -0.187949 0.353007
Spine1  4.98945 0.462753 -2.65208
HEad  1.72004 -16.3923 0.173412
LeftShoulder1  2.24398 -2.23575 -33.0683
LeftArm  31.8374 -15.0373 -36.8658
LeftForeArm  -8.81632 -4.83178 -19.4986
LeftHand  0.290614 -1.14032 -5.08082
RightShoulder  11.1327 15.923 50.1524
RightArm  13.7728 6.59702 15.433
RightForeArm  6.66613 15.6108 9.97502
RightHand  0.158604 4.30208 1.61804
LeftUpLeg  -20.978 33.445 -3.1672
LeftLeg  18.1774 10.7249 3.83975
LeftFoot  -5.30646 0.178492 -2.78147
LeftToes  5.72949e-011 5.22586e-011 2.45399e-011
175
root  -32.0253 39.3344 -72.4633 -170.87 -58.8505 -179.793
RightUpLeg  -16.9246 -21.9839 -9.85666
RightLeg  15.3105 -20.4435 -5.13421
RightFoot  -3.09719 -0.65893 8.83245
RightToes  -5.8209e-011 0 -3.6325e-017
Spine  10.1468 -0.239484 -0.486386
Spine1  4.65564 0.435536 -2.86481
HEad  0.734323 -17.1528 0.651155
LeftShoulder1  2.23693 -2.21555 -33.0829
LeftArm  29.702 -15.8326 -37.2046
LeftForeArm  -6.81259 -4.3984 -19.445
LeftHand  0.287468 -1.23243 -4.94505
RightShoulder  11.1343 15.9182 50.1716
RightArm  15.2477 6.48051 15.4341
RightForeArm  4.89939 16.8919 9.06103
RightHand  0.162387 4.31796 1.65954
LeftUpLeg  -22.276 33.1908 -5.14121
LeftLeg  19.931 9.46998 3.92693
LeftFoot  -7.13854 0.112465 -1.8966
LeftToes  5.72949e-011 5.22586e-011 2.45399e-011
